<mxfile host="app.diagrams.net" agent="Mozilla/5.0 (X11; Linux x86_64) AppleWebKit/537.36 (KHTML, like Gecko) Chrome/130.0.0.0 Safari/537.36" version="28.2.8">
  <diagram name="第 1 页" id="9k6dMcIdAG3Kusr-Nmy2">
    <mxGraphModel dx="1327" dy="742" grid="1" gridSize="10" guides="1" tooltips="1" connect="1" arrows="1" fold="1" page="1" pageScale="1" pageWidth="827" pageHeight="1169" math="0" shadow="0">
      <root>
        <mxCell id="0" />
        <mxCell id="1" parent="0" />
        <mxCell id="pSkjFyqJZUuYjwacfrpm-37" value="" style="rounded=0;whiteSpace=wrap;html=1;dashed=1;fontSize=10;" vertex="1" parent="1">
          <mxGeometry x="90" y="180" width="270" height="340" as="geometry" />
        </mxCell>
        <mxCell id="pSkjFyqJZUuYjwacfrpm-14" value="" style="rounded=0;whiteSpace=wrap;html=1;dashed=1;fontSize=10;" vertex="1" parent="1">
          <mxGeometry x="475" y="180" width="270" height="340" as="geometry" />
        </mxCell>
        <mxCell id="pSkjFyqJZUuYjwacfrpm-4" value="CPU" style="text;html=1;whiteSpace=wrap;strokeColor=none;fillColor=none;align=center;verticalAlign=middle;rounded=0;" vertex="1" parent="1">
          <mxGeometry x="210" y="130" width="60" height="30" as="geometry" />
        </mxCell>
        <mxCell id="pSkjFyqJZUuYjwacfrpm-5" value="GPU" style="text;html=1;whiteSpace=wrap;strokeColor=none;fillColor=none;align=center;verticalAlign=middle;rounded=0;" vertex="1" parent="1">
          <mxGeometry x="580" y="130" width="60" height="30" as="geometry" />
        </mxCell>
        <mxCell id="pSkjFyqJZUuYjwacfrpm-6" value="&lt;div style=&quot;text-align: start;&quot;&gt;&lt;span style=&quot;background-color: transparent; color: light-dark(rgb(0, 0, 0), rgb(255, 255, 255));&quot;&gt;&lt;font&gt;预处理 LLL(B)&lt;/font&gt;&lt;/span&gt;&lt;/div&gt;&lt;div style=&quot;text-align: start;&quot;&gt;&lt;span style=&quot;background-color: transparent; color: light-dark(rgb(0, 0, 0), rgb(255, 255, 255));&quot;&gt;&lt;font&gt;生成B&#39;&lt;/font&gt;&lt;/span&gt;&lt;/div&gt;" style="rounded=0;whiteSpace=wrap;html=1;fontSize=10;" vertex="1" parent="1">
          <mxGeometry x="130" y="190" width="120" height="30" as="geometry" />
        </mxCell>
        <mxCell id="pSkjFyqJZUuYjwacfrpm-17" value="" style="edgeStyle=orthogonalEdgeStyle;rounded=0;orthogonalLoop=1;jettySize=auto;html=1;entryX=-0.003;entryY=0.321;entryDx=0;entryDy=0;entryPerimeter=0;fontSize=10;" edge="1" parent="1" source="pSkjFyqJZUuYjwacfrpm-8" target="pSkjFyqJZUuYjwacfrpm-14">
          <mxGeometry relative="1" as="geometry">
            <mxPoint x="470" y="290" as="targetPoint" />
          </mxGeometry>
        </mxCell>
        <mxCell id="pSkjFyqJZUuYjwacfrpm-26" value="" style="edgeStyle=orthogonalEdgeStyle;rounded=0;orthogonalLoop=1;jettySize=auto;html=1;" edge="1" parent="1" source="pSkjFyqJZUuYjwacfrpm-8" target="pSkjFyqJZUuYjwacfrpm-6">
          <mxGeometry relative="1" as="geometry" />
        </mxCell>
        <mxCell id="pSkjFyqJZUuYjwacfrpm-8" value="&lt;div style=&quot;text-align: start;&quot;&gt;&lt;span style=&quot;background-color: transparent;&quot;&gt;&lt;font&gt;选择局部子格&lt;/font&gt;&lt;/span&gt;&lt;/div&gt;" style="rounded=0;whiteSpace=wrap;html=1;fontSize=10;" vertex="1" parent="1">
          <mxGeometry x="127.5" y="260" width="125" height="60" as="geometry" />
        </mxCell>
        <mxCell id="pSkjFyqJZUuYjwacfrpm-9" value="采样" style="rounded=0;whiteSpace=wrap;html=1;fontSize=10;" vertex="1" parent="1">
          <mxGeometry x="532.5" y="220" width="155" height="60" as="geometry" />
        </mxCell>
        <mxCell id="pSkjFyqJZUuYjwacfrpm-10" value="归一化" style="rounded=0;whiteSpace=wrap;html=1;fontSize=10;" vertex="1" parent="1">
          <mxGeometry x="532.5" y="330" width="155" height="60" as="geometry" />
        </mxCell>
        <mxCell id="pSkjFyqJZUuYjwacfrpm-11" value="通用筛选算法" style="rounded=0;whiteSpace=wrap;html=1;fontSize=10;" vertex="1" parent="1">
          <mxGeometry x="532.5" y="450" width="155" height="60" as="geometry" />
        </mxCell>
        <mxCell id="pSkjFyqJZUuYjwacfrpm-18" value="局部子格L_t 相关数据&lt;div&gt;拷贝到GPU&lt;/div&gt;" style="text;html=1;whiteSpace=wrap;strokeColor=none;fillColor=none;align=center;verticalAlign=middle;rounded=0;fontSize=10;" vertex="1" parent="1">
          <mxGeometry x="334" y="250" width="160" height="30" as="geometry" />
        </mxCell>
        <mxCell id="pSkjFyqJZUuYjwacfrpm-23" value="" style="edgeStyle=orthogonalEdgeStyle;rounded=0;orthogonalLoop=1;jettySize=auto;html=1;entryX=1;entryY=0.5;entryDx=0;entryDy=0;fontSize=10;" edge="1" parent="1" source="pSkjFyqJZUuYjwacfrpm-11" target="pSkjFyqJZUuYjwacfrpm-25">
          <mxGeometry relative="1" as="geometry">
            <mxPoint x="340" y="449.96000000000004" as="targetPoint" />
          </mxGeometry>
        </mxCell>
        <mxCell id="pSkjFyqJZUuYjwacfrpm-29" value="" style="edgeStyle=orthogonalEdgeStyle;rounded=0;orthogonalLoop=1;jettySize=auto;html=1;" edge="1" parent="1" source="pSkjFyqJZUuYjwacfrpm-25" target="pSkjFyqJZUuYjwacfrpm-28">
          <mxGeometry relative="1" as="geometry" />
        </mxCell>
        <mxCell id="pSkjFyqJZUuYjwacfrpm-25" value="&lt;div style=&quot;text-align: start;&quot;&gt;&lt;p style=&quot;margin: 0pt 0pt 0.0001pt; text-align: justify; font-family: &amp;quot;Times New Roman&amp;quot;;&quot; class=&quot;MsoNormal&quot;&gt;&lt;font style=&quot;font-size: 10px;&quot;&gt;将s插入全局基并更新全局基&lt;/font&gt;&lt;/p&gt;&lt;/div&gt;" style="rounded=0;whiteSpace=wrap;html=1;fontSize=10;" vertex="1" parent="1">
          <mxGeometry x="130" y="450" width="120" height="60" as="geometry" />
        </mxCell>
        <mxCell id="pSkjFyqJZUuYjwacfrpm-30" value="" style="edgeStyle=orthogonalEdgeStyle;rounded=0;orthogonalLoop=1;jettySize=auto;html=1;" edge="1" parent="1" source="pSkjFyqJZUuYjwacfrpm-28">
          <mxGeometry relative="1" as="geometry">
            <mxPoint x="340" y="390" as="targetPoint" />
            <Array as="points">
              <mxPoint x="280" y="390" />
              <mxPoint x="280" y="390" />
            </Array>
          </mxGeometry>
        </mxCell>
        <mxCell id="pSkjFyqJZUuYjwacfrpm-31" value="" style="edgeStyle=orthogonalEdgeStyle;rounded=0;orthogonalLoop=1;jettySize=auto;html=1;" edge="1" parent="1" source="pSkjFyqJZUuYjwacfrpm-28" target="pSkjFyqJZUuYjwacfrpm-8">
          <mxGeometry relative="1" as="geometry" />
        </mxCell>
        <mxCell id="pSkjFyqJZUuYjwacfrpm-28" value="检查是否收敛" style="rhombus;whiteSpace=wrap;html=1;fontSize=10;rounded=0;" vertex="1" parent="1">
          <mxGeometry x="150" y="350" width="80" height="80" as="geometry" />
        </mxCell>
        <mxCell id="pSkjFyqJZUuYjwacfrpm-32" value="&lt;font style=&quot;font-size: 10px;&quot;&gt;Y 并输出结果&lt;/font&gt;" style="text;html=1;whiteSpace=wrap;strokeColor=none;fillColor=none;align=center;verticalAlign=middle;rounded=0;" vertex="1" parent="1">
          <mxGeometry x="220" y="370" width="110" height="30" as="geometry" />
        </mxCell>
        <mxCell id="pSkjFyqJZUuYjwacfrpm-35" value="&lt;font style=&quot;font-size: 10px;&quot;&gt;N 滑动窗口，选择新局部子格&lt;/font&gt;" style="text;html=1;whiteSpace=wrap;strokeColor=none;fillColor=none;align=center;verticalAlign=middle;rounded=0;" vertex="1" parent="1">
          <mxGeometry x="195" y="330" width="135" height="30" as="geometry" />
        </mxCell>
        <mxCell id="pSkjFyqJZUuYjwacfrpm-36" value="局部最短向量s拷贝回CPU" style="text;html=1;whiteSpace=wrap;strokeColor=none;fillColor=none;align=center;verticalAlign=middle;rounded=0;fontSize=10;" vertex="1" parent="1">
          <mxGeometry x="344" y="450" width="150" height="30" as="geometry" />
        </mxCell>
      </root>
    </mxGraphModel>
  </diagram>
</mxfile>
